<?xml version="1.0" encoding="UTF-8"?>
<svg id="Layer_2" data-name="Layer 2" xmlns="http://www.w3.org/2000/svg" xmlns:xlink="http://www.w3.org/1999/xlink" viewBox="0 0 940.62 940.53">
  <defs>
    <style>
      .cls-1 {
        fill: #2635ef;
      }

      .cls-2 {
        fill: #ffeeeb;
      }

      .cls-3 {
        fill: #2d0704;
      }

      .cls-4 {
        fill: url(#linear-gradient);
      }
    </style>
    <linearGradient id="linear-gradient" x1="66.43" y1="754.26" x2="792.99" y2="156.86" gradientUnits="userSpaceOnUse">
      <stop offset="0" stop-color="#ff8983"/>
      <stop offset=".24" stop-color="#ffe36e"/>
      <stop offset=".51" stop-color="#aaf9aa"/>
      <stop offset=".75" stop-color="#acf5f9"/>
      <stop offset=".91" stop-color="#cbadf7"/>
      <stop offset="1" stop-color="#f4aed8"/>
    </linearGradient>
  </defs>
  <g id="Layer_1-2" data-name="Layer 1">
    <path class="cls-2" d="M913.58,319.42l-18.6,81.07c-6.34,27.57-19.98,53.05-39.19,73.62-2.54,2.71-3.07,6.75-1.24,9.99l.03,.05c11.2,20.02,14.67,42.46,10.04,64.91-.09,.44-.19,.88-.29,1.31l-28.49,123.97c-7.39,32.17-28.35,59.5-57.5,74.99l-78.76,41.86c-17.61,9.35-30.29,25.89-34.76,45.32l-4.44,19.32c-3.85,16.69-13.35,31.78-26.74,42.47-13.41,10.68-30.23,16.58-47.37,16.6l-58.05,.08h-.11c-7.22,0-14.28-1-21.03-2.93-8.88-2.54-18.31-2.76-27.19-.25-7.7,2.17-15.54,3.27-23.44,3.29l-163.97,.23h-.13c-14.84,0-29.18-3.79-41.49-10.94-12.46-7.23-22.91-17.95-30.22-31.01l-.1-.18c-6.78-12.1-18.43-20.71-32-23.62l-95.29-20.47c-46.29-9.94-76.04-55.95-66.09-102.25L163.25,93.39l2.01-9.37,.29-1.36c.12-.53,.23-1.06,.36-1.58,.25-1.06,.52-2.1,.82-3.13,.26-.9,.53-1.8,.83-2.68,.2-.61,.4-1.22,.62-1.82,.18-.52,.37-1.03,.57-1.55,.37-.98,.77-1.96,1.19-2.92,.39-.89,.8-1.78,1.23-2.66,.43-.89,.87-1.77,1.35-2.64,.25-.49,.51-.96,.79-1.43,.04-.09,.08-.17,.13-.26,.52-.89,1.05-1.78,1.6-2.65,.3-.49,.61-.96,.92-1.43,.05-.08,.1-.15,.15-.21,.04-.08,.1-.15,.15-.22,.16-.24,.31-.49,.48-.72,.3-.43,.59-.85,.89-1.26,.9-1.24,1.83-2.45,2.81-3.63,0-.01,0-.01,0-.01,.97-1.18,1.99-2.33,3.03-3.44,.34-.38,.69-.75,1.05-1.1l.25-.26c.27-.28,.55-.55,.83-.83,1.19-1.16,2.41-2.29,3.67-3.36,1.15-1,2.35-1.95,3.57-2.89,.98-.72,1.96-1.44,2.98-2.12,3.48-2.36,7.16-4.43,11-6.17,.93-.42,1.86-.82,2.81-1.19,3.88-1.57,7.92-2.82,12.05-3.69,4.9-1.04,9.93-1.59,15.04-1.59s10.09,.53,15.19,1.62l142.86,30.69,11.81,2.53c.12,.02,.29,.08,.51,.15,.11,.03,.23,.07,.36,.12,.21,.07,.43,.14,.69,.23,.16,.06,.34,.11,.53,.17,.09,.04,.19,.07,.29,.1,.29,.08,.59,.18,.92,.28,.34,.1,.68,.19,1.03,.29,.24,.06,.48,.11,.73,.17,1.48,.35,3.13,.62,4.7,.62,1.38,0,2.7-.2,3.84-.74,.37-.18,.73-.35,1.1-.52,12.13-5.64,24.76-8.5,37.56-8.5h163.99c7.96,0,15.78,1.09,23.22,3.21,6.18,1.75,12.72,1.64,18.88-.18,6.75-1.99,13.79-3.03,20.89-3.03h62.58c22.66,0,43.73,10.16,57.85,27.88,14.11,17.72,19.3,40.54,14.22,62.62l-23.68,103.13,20.95-8.45c8.51-3.44,17.46-5.17,26.59-5.17,21.74,0,42.01,9.78,55.58,26.83,13.55,17,18.53,38.92,13.66,60.15Z"/>
    <g>
      <g>
        <path class="cls-3" d="M501.66,312.52l-82.05-40.86c-19.18-9.55-29.31-31.01-24.48-51.89l24.93-107.79c1.02-4.08,2.72-8.16,5.1-12.25,2.38-4.08,5.27-7.73,8.68-10.97,3.4-3.23,7.22-5.87,11.48-7.91,4.25-2.04,8.42-3.06,12.5-3.06h166.87c8.5,0,14.8,3.66,18.88,10.97,4.08,7.32,5.27,15.06,3.57,23.22l-24.63,105.8c-1.5,6.44-8.6,9.82-14.54,6.92l-62.67-30.55c-4.31-2.1-6.6-6.9-5.52-11.57l2.75-11.92c2.04-7.82,1.02-11.74-3.06-11.74h-32.66c-3.95,0-6.95,2.87-8.99,8.62-.13,.37-.24,.76-.33,1.15l-5.19,22.63c-1.07,4.64,1.19,9.41,5.46,11.53l90.46,44.86c14.49,7.18,22.13,23.39,18.47,39.14l-26.4,113.45c-1.02,4.08-2.73,8.16-5.1,12.25-2.38,4.08-5.28,7.73-8.68,10.97-3.4,3.23-7.23,5.87-11.48,7.91-4.26,2.04-8.42,3.06-12.5,3.06h-166.87c-8.51,0-14.8-3.66-18.88-10.97-4.08-7.32-5.28-15.05-3.57-23.22l24.11-103.26c1.5-6.44,8.6-9.81,14.54-6.92l62.64,30.54c4.33,2.11,6.61,6.93,5.51,11.62l-2.2,9.34c-2.04,7.83-.69,11.74,4.08,11.74h32.66c3.74,0,6.63-3.91,8.68-11.74l3.89-17.66c1.02-4.61-1.24-9.33-5.47-11.43Z"/>
        <path class="cls-3" d="M718.76,353.35h0c19,0,35.46-13.16,39.65-31.68l4.91-21.74c.75-3.3,3.06-6.02,6.2-7.28l76.71-30.92c7.72-3.11,15.75,3.74,13.89,11.86l-18.93,82.5c-10.53,45.88-51.36,78.4-98.43,78.4h-133.7c-6.62,0-11.52-6.16-10.04-12.61l76.89-333.82c1.38-6.01,6.73-10.26,12.89-10.26h63.69c8.5,0,14.8,7.91,12.9,16.19l-56.66,246.76c-1.48,6.45,3.42,12.6,10.04,12.6Z"/>
      </g>
      <g>
        <path class="cls-3" d="M493.01,797.36c-1.01,4.08-2.72,8.17-5.09,12.25-2.38,4.09-5.27,7.74-8.66,10.98-3.4,3.23-7.22,5.88-11.47,7.93-4.26,2.05-8.42,3.07-12.5,3.08l-166.87,.24c-8.51,.01-14.8-3.64-18.9-10.94-4.09-7.31-5.3-15.04-3.6-23.21l66.44-288.41c1.01-4.09,2.71-8.17,5.09-12.26,2.37-4.08,5.26-7.74,8.66-10.98,3.39-3.23,7.21-5.88,11.47-7.93,4.25-2.05,8.42-3.07,12.5-3.08l166.87-.24c8.5-.01,14.8,3.64,18.9,10.94,4.09,7.31,5.29,15.05,3.6,23.21l-66.44,288.41Zm-38.09-229.58c2.03-7.82,1-11.74-3.08-11.73l-32.66,.05c-4.43,0-7.65,3.93-9.68,11.75l-39.05,171c-2.03,7.83-.67,11.74,4.1,11.73l32.66-.05c3.74,0,6.63-3.92,8.66-11.75l39.05-171Z"/>
        <path class="cls-3" d="M615.88,761.12l-13.41,58.28c-1.62,7.02-7.86,12-15.07,12.01l-59.07,.08c-9.95,.01-17.34-9.23-15.12-18.94l71.45-312.22c3.43-15,16.76-25.64,32.15-25.66l170.69-.24c8.5-.01,14.8,3.64,18.9,10.94,4.09,7.31,5.29,15.05,3.6,23.21l-28.99,126.15c-3.49,15.19-13.41,28.12-27.17,35.44l-115.14,61.19c-11.56,6.14-19.88,16.99-22.81,29.75Zm89.6-193.7c2.03-7.82,1-11.74-3.08-11.73l-35.14,.05c-2.43,0-4.54,1.68-5.08,4.05l-18.81,81.74c-1.01,4.37,3.6,7.89,7.56,5.77l35.34-18.96c3.83-2.05,6.59-5.67,7.55-9.9l11.66-51.01Z"/>
      </g>
    </g>
    <path class="cls-1" d="M99.09,620.79c-3.94,1.18-7.52,3.16-10.73,5.94-3.21,2.77-6,6.25-8.33,10.39-2.36,4.14-4.07,8.7-5.15,13.69l-10.44,48.21c-6.77,31.26,13.06,62.06,44.32,68.84l125.18,27.12c6.18,1.34,12.29-2.59,13.63-8.78l9.56-44.11c1.35-6.22-2.59-12.33-8.77-13.67l-19.3-4.18,8.28-38.23c1.08-4.99,1.45-9.84,1.12-14.57-.3-4.72-1.37-9.02-3.15-12.88-1.78-3.85-4.25-7.14-7.45-9.88-3.17-2.72-6.98-4.59-11.42-5.55l-104.78-22.7c-4.44-.96-8.62-.83-12.56,.35Zm102.19,82.2c3.55,.77,5.83,4.3,5.06,7.86l-1.78,8.2c-.76,3.52-4.3,5.79-7.85,5.02l-94.19-20.41c-5.64-1.22-9.28-6.84-8.06-12.48l.95-4.37c.77-3.55,4.3-5.83,7.86-5.06l98.02,21.24Z"/>
    <path class="cls-1" d="M128.65,461.91l168.43,36.49c6.77,1.47,11.08,8.15,9.61,14.92l-9.1,41.99h0c-.71,3.23-3.89,5.27-7.12,4.57l-73.17-15.85c-3.55-.77-7.05,1.48-7.81,5.03l-1.78,8.23c-.77,3.55,1.51,7.09,5.06,7.86l73.06,15.83c3.27,.71,5.34,3.93,4.64,7.19h0s-9.1,41.99-9.1,41.99c-1.47,6.76-8.16,11.07-14.96,9.6l-168.4-36.49c-6.77-1.47-11.08-8.15-9.61-14.92l9.1-41.99h0c.72-3.25,3.97-5.33,7.22-4.62l81.83,17.73c3.55,.77,7.09-1.51,7.86-5.06l1.78-8.2c.77-3.55-1.51-7.09-5.06-7.86l-81.91-17.75c-3.23-.7-5.28-3.88-4.59-7.11h0s9.1-41.99,9.1-41.99c1.47-6.8,8.16-11.07,14.92-9.61Z"/>
    <path class="cls-1" d="M163.28,324.52c-3.94,1.18-7.52,3.16-10.73,5.94-3.22,2.81-6,6.25-8.33,10.39-2.36,4.14-4.07,8.7-5.15,13.69l-11.07,51.11c-2.28,10.52-1.58,19.83,2.08,27.88,3.69,8.06,9.95,13.03,18.83,14.95l135.29,29.31c4.44,.96,8.64,.91,12.66-.15,3.99-1.07,7.59-3.01,10.84-5.77,3.22-2.81,5.93-6.26,8.2-10.42,2.26-4.16,3.95-8.84,5.07-14l11.07-51.11c1.08-4.99,1.45-9.84,1.12-14.57-.34-4.72-1.38-8.99-3.15-12.88-1.81-3.86-4.28-7.15-7.45-9.88-3.2-2.73-6.99-4.55-11.43-5.52l-135.29-29.31c-4.44-.96-8.61-.86-12.55,.32Zm136.04,70.79c3.52,.76,5.79,4.3,5.02,7.85l-1.78,8.2c-.77,3.55-4.3,5.83-7.82,5.07l-128.77-27.9c-3.55-.77-5.83-4.3-5.06-7.86l1.78-8.2c.77-3.55,4.3-5.83,7.86-5.06l128.77,27.9Z"/>
    <path class="cls-1" d="M338.18,323.37l-144.65-31.34-3.5,16.14c-.97,4.46-5.36,7.29-9.82,6.32l-22.93-4.97c-4.46-.97-7.29-5.36-6.32-9.82l24.43-112.77c.97-4.46,5.36-7.29,9.82-6.32l22.93,4.97c4.46,.97,7.29,5.36,6.32,9.82l-3.56,16.42,144.65,31.34c5.09,1.1,8.33,6.13,7.22,11.22l-13.38,61.76c-1.1,5.09-6.13,8.33-11.22,7.22Z"/>
    <path class="cls-1" d="M222.95,49.15c-3.94,1.18-7.52,3.16-10.73,5.94-3.22,2.81-6,6.25-8.33,10.39-2.36,4.14-4.07,8.7-5.15,13.69l-11.07,51.11c-2.28,10.52-1.58,19.83,2.08,27.88,3.69,8.06,9.95,13.03,18.83,14.95l135.29,29.31c4.44,.96,8.64,.91,12.66-.15,3.99-1.07,7.59-3.01,10.84-5.77,3.22-2.81,5.93-6.26,8.2-10.42,2.26-4.16,3.95-8.84,5.07-14l11.07-51.11c1.08-4.99,1.45-9.84,1.12-14.57-.34-4.72-1.38-8.99-3.15-12.88-1.81-3.86-4.28-7.15-7.45-9.88-3.2-2.73-6.99-4.55-11.43-5.52l-135.29-29.31c-4.44-.96-8.61-.86-12.55,.32Zm136.04,70.79c3.52,.76,5.79,4.3,5.02,7.85l-1.78,8.2c-.77,3.55-4.3,5.83-7.82,5.07l-128.77-27.9c-3.55-.77-5.83-4.3-5.06-7.86l1.78-8.2c.77-3.55,4.3-5.83,7.86-5.06l128.77,27.9Z"/>
    <path class="cls-4" d="M919.65,243.57c-18.38-23.1-45.84-36.35-75.31-36.35-4.36,0-8.68,.3-12.95,.87l13.67-59.52c6.81-29.59-.15-60.19-19.07-83.97-18.94-23.76-47.2-37.38-77.58-37.38h-62.58c-10.29,0-20.68,1.66-30.55,4.84-10.4-3.21-21.27-4.84-32.44-4.84h-163.99c-15.02,0-29.8,3.02-44.01,8.99h-.02c-.41-.13-.87-.27-1.36-.41-.39-.1-.8-.22-1.24-.31-.07-.03-.15-.04-.23-.06-.03-.01-.07-.02-.1-.02L257.21,2.19c-6.74-1.45-13.63-2.19-20.48-2.19-.79,0-1.57,0-2.36,.04-.78,.02-1.55,.04-2.33,.08-.58,.03-1.16,.06-1.72,.1-.61,.04-1.22,.09-1.83,.14h-.02c-7.53,.64-14.95,2.18-22.12,4.52-1.95,.64-3.89,1.34-5.8,2.1-.96,.39-1.91,.78-2.86,1.19-.94,.42-1.88,.84-2.81,1.28-.62,.29-1.24,.6-1.85,.9-.61,.31-1.23,.62-1.84,.94-.57,.29-1.13,.6-1.69,.91-.08,.04-.15,.08-.22,.12-.57,.31-1.14,.64-1.71,.96-.58,.35-1.18,.7-1.77,1.06-.59,.35-1.18,.72-1.76,1.09-1.16,.74-2.31,1.51-3.44,2.3-.57,.4-1.14,.8-1.69,1.21-.74,.53-1.45,1.07-2.17,1.63-.33,.25-.67,.51-1.01,.78-.04,.04-.09,.08-.13,.11-.98,.78-1.94,1.58-2.88,2.38-.34,.3-.69,.59-1.01,.9-.99,.86-1.95,1.75-2.89,2.66-.72,.69-1.42,1.38-2.12,2.09-.05,.05-.1,.1-.15,.14-.32,.33-.62,.64-.93,.97-.28,.3-.56,.6-.85,.9-.02,.02-.04,.06-.06,.08-.11,.11-.21,.23-.31,.34-.1,.11-.18,.2-.28,.31-.53,.59-1.06,1.18-1.57,1.77-.52,.6-1.02,1.2-1.53,1.81-1.11,1.35-2.18,2.72-3.21,4.13-.25,.35-.51,.69-.76,1.04-.31,.44-.63,.88-.93,1.32-.47,.67-.91,1.33-1.34,1.99-.42,.62-.81,1.24-1.2,1.86-.03,.04-.05,.08-.07,.13-.44,.68-.86,1.37-1.27,2.08-.02,.04-.04,.08-.07,.12-.39,.68-.78,1.35-1.15,2.02-.08,.14-.16,.28-.24,.42-.3,.55-.6,1.1-.88,1.66-.12,.21-.24,.43-.35,.66-.34,.65-.67,1.32-.99,1.98-.33,.69-.67,1.38-.99,2.08-.16,.37-.33,.72-.49,1.1-.19,.42-.38,.85-.56,1.28-.51,1.19-.99,2.39-1.45,3.6-.19,.46-.35,.93-.52,1.4-.3,.8-.58,1.61-.85,2.43-.05,.14-.09,.26-.13,.39-.18,.53-.34,1.04-.5,1.57-.84,2.72-1.58,5.49-2.18,8.3L2.51,721.56c-6.23,28.97-.75,58.71,15.43,83.74,16.18,25.03,41.04,42.23,70.02,48.46l106.03,22.77c1.42,3.12,2.98,6.18,4.66,9.19,9.51,16.98,23.19,30.97,39.56,40.47,16.14,9.38,34.87,14.34,54.14,14.34h.13l164-.23c12.49-.02,24.79-2.12,36.74-6.27,11.12,4.06,22.99,6.17,34.89,6.17h.11l58.08-.09c22.81-.03,45.21-7.88,63.05-22.09,17.85-14.23,30.49-34.31,35.6-56.53l8.9-38.71,96.32-51.19c35.61-18.91,61.21-52.3,70.25-91.6l28.45-123.84c.15-.59,.27-1.19,.4-1.79,.02-.06,.03-.15,.04-.21,5.07-24.52,2.5-49.03-7.39-71.59,18.28-22.18,31.17-48.27,37.63-76.43l18.61-81.07c6.59-28.76-.16-58.46-18.51-81.49Zm-6.07,75.85l-18.6,81.07c-6.34,27.57-19.98,53.05-39.19,73.62-2.54,2.71-3.07,6.75-1.24,9.99l.03,.05c11.2,20.02,14.67,42.46,10.04,64.91-.09,.44-.19,.88-.29,1.31l-28.49,123.97c-7.39,32.17-28.35,59.5-57.5,74.99l-78.76,41.86c-17.61,9.35-30.29,25.89-34.76,45.32l-4.44,19.32c-3.85,16.69-13.35,31.78-26.74,42.47-13.41,10.68-30.23,16.58-47.37,16.6l-58.05,.08h-.11c-7.22,0-14.28-1-21.03-2.93-8.88-2.54-18.31-2.76-27.19-.25-7.7,2.17-15.54,3.27-23.44,3.29l-163.97,.23h-.13c-14.84,0-29.18-3.79-41.49-10.94-12.46-7.23-22.91-17.95-30.22-31.01l-.1-.18c-6.78-12.1-18.43-20.71-32-23.62l-95.29-20.47c-46.29-9.94-76.04-55.95-66.09-102.25L163.25,93.39l2.01-9.37,.29-1.36c.12-.53,.23-1.06,.36-1.58,.25-1.06,.52-2.1,.82-3.13,.26-.9,.53-1.8,.83-2.68,.2-.61,.4-1.22,.62-1.82,.18-.52,.37-1.03,.57-1.55,.37-.98,.77-1.96,1.19-2.92,.39-.89,.8-1.78,1.23-2.66,.43-.89,.87-1.77,1.35-2.64,.25-.49,.51-.96,.79-1.43,.04-.09,.08-.17,.13-.26,.52-.89,1.05-1.78,1.6-2.65,.3-.49,.61-.96,.92-1.43,.05-.08,.1-.15,.15-.21,.04-.08,.1-.15,.15-.22,.16-.24,.31-.49,.48-.72,.3-.43,.59-.85,.89-1.26,.9-1.24,1.83-2.45,2.81-3.63,0-.01,0-.01,0-.01,.97-1.18,1.99-2.33,3.03-3.44,.34-.38,.69-.75,1.05-1.1l.25-.26c.27-.28,.55-.55,.83-.83,1.19-1.16,2.41-2.29,3.67-3.36,1.15-1,2.35-1.95,3.57-2.89,.98-.72,1.96-1.44,2.98-2.12,3.48-2.36,7.16-4.43,11-6.17,.93-.42,1.86-.82,2.81-1.19,3.88-1.57,7.92-2.82,12.05-3.69,4.9-1.04,9.93-1.59,15.04-1.59s10.09,.53,15.19,1.62l142.86,30.69,11.81,2.53c.12,.02,.29,.08,.51,.15,.11,.03,.23,.07,.36,.12,.21,.07,.43,.14,.69,.23,.16,.06,.34,.11,.53,.17,.09,.04,.19,.07,.29,.1,.29,.08,.59,.18,.92,.28,.34,.1,.68,.19,1.03,.29,.24,.06,.48,.11,.73,.17,1.48,.35,3.13,.62,4.7,.62,1.38,0,2.7-.2,3.84-.74,.37-.18,.73-.35,1.1-.52,12.13-5.64,24.76-8.5,37.56-8.5h163.99c7.96,0,15.78,1.09,23.22,3.21,6.18,1.75,12.72,1.64,18.88-.18,6.75-1.99,13.79-3.03,20.89-3.03h62.58c22.66,0,43.73,10.16,57.85,27.88,14.11,17.72,19.3,40.54,14.22,62.62l-23.68,103.13,20.95-8.45c8.51-3.44,17.46-5.17,26.59-5.17,21.74,0,42.01,9.78,55.58,26.83,13.55,17,18.53,38.92,13.66,60.15Z"/>
  </g>
</svg>